<?xml version="1.0" standalone="no"?>
<!DOCTYPE svg PUBLIC "-//W3C//DTD SVG 20010904//EN"
 "http://www.w3.org/TR/2001/REC-SVG-20010904/DTD/svg10.dtd">
<svg version="1.0" xmlns="http://www.w3.org/2000/svg"
 width="5001.000000pt" height="5001.000000pt" viewBox="0 0 5001.000000 5001.000000"
 preserveAspectRatio="xMidYMid meet">

<g transform="translate(0.000000,5001.000000) scale(0.100000,-0.100000)"
fill="#000000" stroke="none">
<path d="M13004 49989 c-1794 -28 -2936 -118 -4009 -314 -1035 -190 -1994
-499 -2872 -925 -1041 -506 -1951 -1148 -2777 -1960 -1523 -1497 -2524 -3364
-2965 -5530 -227 -1116 -328 -2278 -361 -4185 -11 -584 -10 -20500 0 -21905 4
-598 6 -660 8 -314 1 237 5 539 9 672 l6 242 139 0 138 0 0 80 0 80 160 0 160
0 0 80 0 80 80 0 80 0 0 80 0 80 80 0 80 0 0 80 0 80 160 0 160 0 0 80 0 80
160 0 160 0 0 160 0 160 80 0 80 0 0 80 0 80 240 0 240 0 0 80 0 80 240 0 240
0 0 160 0 160 80 0 80 0 0 80 0 80 80 0 80 0 0 -80 0 -80 80 0 80 0 0 80 0 80
160 0 160 0 0 80 0 80 80 0 80 0 0 80 0 80 80 0 c73 0 80 -2 80 -20 0 -26 30
-26 37 0 7 27 16 25 31 -7 10 -23 10 -30 -3 -42 -12 -12 -17 -12 -27 -3 -14
14 -78 16 -78 2 0 -5 9 -10 20 -10 11 0 20 -4 20 -10 0 -15 70 -12 86 4 8 8
14 31 14 50 l0 36 70 0 c63 0 70 -2 70 -20 0 -11 5 -20 10 -20 6 0 10 9 10 20
0 11 5 20 10 20 6 0 10 -9 10 -20 0 -13 7 -20 20 -20 18 0 20 -7 20 -60 l0
-60 30 0 c28 0 30 3 30 36 0 45 19 64 64 64 33 0 36 2 36 30 l0 30 160 0 159
0 3 78 3 77 108 3 107 3 0 35 c0 45 19 64 64 64 33 0 36 2 36 30 0 27 3 30 30
30 28 0 30 3 30 36 0 45 19 64 64 64 33 0 36 2 36 30 l0 30 80 0 80 0 0 60 0
60 40 0 40 0 0 -60 c0 -53 2 -60 20 -60 13 0 20 -7 20 -20 0 -13 7 -20 20 -20
13 0 20 7 20 20 0 18 7 20 80 20 47 0 80 4 80 10 0 6 14 10 30 10 17 0 30 -4
30 -10 0 -6 50 -10 130 -10 l130 0 0 80 0 80 80 0 80 0 0 80 0 80 80 0 80 0 0
80 0 80 50 0 c43 0 50 -3 50 -20 0 -11 5 -20 10 -20 6 0 10 9 10 20 0 17 7 20
50 20 47 0 50 -2 50 -26 0 -29 21 -54 44 -54 9 0 16 -8 16 -20 0 -13 7 -20 20
-20 18 0 20 7 20 60 l0 60 50 0 c48 0 50 1 50 29 0 16 6 41 14 55 l14 27 11
-38 c9 -34 10 -30 5 32 -3 38 -10 72 -16 76 -6 4 -8 23 -4 50 17 111 18 130 7
143 -8 9 -8 28 -1 66 5 29 9 67 9 84 l-2 31 -7 -35 c-7 -30 -7 -29 -4 10 8 84
8 284 -1 705 -11 525 -13 8331 -2 9200 7 582 28 1514 42 1855 3 74 10 252 15
395 10 266 12 319 30 700 32 689 72 1217 120 1600 6 44 17 130 25 190 189
1476 616 2852 1247 4020 410 758 931 1445 1598 2108 651 647 1282 1128 2020
1539 537 299 1262 607 1910 811 952 300 1978 485 3160 571 298 22 307 22 920
51 974 46 1863 70 3005 82 1208 13 8338 9 9085 -5 746 -14 1306 -30 1690 -47
58 -3 170 -7 250 -10 80 -3 183 -7 230 -10 47 -3 146 -7 220 -10 74 -3 176 -7
225 -10 50 -2 144 -7 210 -10 1090 -53 2168 -204 3022 -425 899 -233 1835
-598 2523 -985 41 -23 95 -53 120 -67 206 -115 569 -353 812 -532 448 -330
829 -667 1258 -1113 664 -689 1161 -1389 1574 -2213 543 -1086 906 -2296 1090
-3640 96 -698 135 -1227 186 -2520 5 -140 12 -298 15 -350 6 -107 21 -634 35
-1270 19 -822 30 -5009 20 -7430 -6 -1279 -12 -2401 -15 -2495 -2 -93 -7 -314
-10 -490 -3 -176 -8 -385 -10 -465 -3 -80 -10 -287 -15 -460 -12 -366 -44
-1090 -65 -1500 -85 -1605 -330 -2898 -777 -4100 -570 -1533 -1322 -2647
-2548 -3777 -30 -28 -80 -72 -110 -98 -30 -26 -68 -59 -85 -74 -88 -77 -251
-210 -400 -326 -256 -200 -671 -477 -960 -639 -194 -110 -231 -132 -237 -141
-4 -5 -8 -7 -8 -3 0 3 -57 -23 -127 -59 -202 -104 -241 -123 -252 -123 -6 0
-11 -5 -11 -12 0 -6 -3 -9 -6 -6 -4 5 -58 -18 -239 -102 -39 -18 -283 -120
-288 -120 -2 0 -26 -10 -53 -22 -27 -12 -51 -22 -54 -23 -3 0 -24 -8 -45 -17
-57 -24 -246 -95 -335 -125 -41 -14 -79 -29 -85 -34 -5 -5 -18 -9 -30 -9 -12
0 -26 -5 -33 -12 -7 -7 -12 -9 -12 -5 0 4 -24 -2 -52 -14 -58 -22 -75 -27
-100 -28 -9 -1 -23 -8 -31 -16 -8 -8 -17 -12 -20 -9 -3 3 -47 -9 -98 -27 -52
-17 -110 -35 -129 -40 -19 -4 -75 -19 -125 -34 -49 -14 -101 -28 -115 -31 -14
-2 -36 -9 -50 -13 -14 -5 -38 -13 -55 -17 -16 -4 -34 -8 -40 -10 -112 -28
-158 -39 -210 -49 -22 -4 -44 -10 -50 -13 -5 -4 -14 -7 -20 -8 -14 -3 -52 -11
-110 -24 -27 -6 -57 -11 -65 -12 -8 0 -20 -5 -27 -10 -6 -5 -29 -11 -50 -13
-51 -5 -90 -12 -138 -24 -22 -5 -57 -13 -79 -16 -42 -7 -43 -14 -3 -17 15 -1
27 -6 27 -10 0 -12 -22 -9 -50 5 -15 8 -35 10 -50 6 -14 -4 -43 -12 -65 -17
-22 -5 -49 -13 -60 -17 -17 -6 -17 -5 -5 5 12 9 8 10 -20 6 -18 -4 -37 -11
-41 -17 -4 -7 -12 -8 -19 -4 -9 5 -11 4 -6 -3 5 -8 -1 -12 -14 -12 -12 0 -19
4 -16 8 2 4 -7 8 -22 9 -24 2 -24 1 -7 -7 16 -7 13 -9 -16 -9 -20 -1 -53 -8
-72 -16 -24 -10 -60 -14 -106 -12 -39 2 -68 0 -65 -5 3 -4 -11 -8 -31 -8 -20
0 -44 -4 -53 -9 -27 -14 -80 -24 -62 -11 21 14 -5 14 -31 0 -25 -14 -24 -30 1
-30 11 0 20 -4 20 -10 0 -6 90 -10 250 -10 243 0 250 -1 250 -20 0 -11 5 -20
10 -20 6 0 10 -60 10 -160 l0 -160 80 0 80 0 0 -110 0 -110 40 0 c22 0 40 -4
40 -10 0 -5 9 -10 20 -10 13 0 20 -7 20 -20 0 -13 7 -20 20 -20 13 0 20 -7 20
-20 0 -18 7 -20 80 -20 l80 0 0 -80 0 -80 80 0 80 0 0 -160 0 -160 80 0 80 0
0 -80 0 -80 60 0 60 0 0 -40 c0 -33 3 -40 20 -40 17 0 20 -7 20 -40 l0 -40 70
0 70 0 0 -80 c0 -47 4 -80 10 -80 6 0 10 -33 10 -80 l0 -80 80 0 80 0 0 -160
c0 -153 1 -160 20 -160 18 0 20 -7 20 -80 l0 -80 60 0 60 0 0 -80 c0 -47 4
-80 10 -80 6 0 10 -18 10 -40 0 -22 5 -40 10 -40 6 0 10 -18 10 -40 l0 -40 60
0 60 0 0 -80 0 -80 80 0 80 0 0 -80 0 -80 80 0 80 0 0 -80 0 -80 80 0 80 0 0
-160 0 -160 80 0 80 0 0 -220 0 -220 40 0 c33 0 40 -3 40 -20 0 -13 7 -20 20
-20 18 0 20 -7 20 -60 0 -33 -4 -60 -10 -60 -5 0 -10 -4 -10 -10 0 -5 14 -10
30 -10 17 0 30 -4 30 -10 0 -6 33 -10 80 -10 l80 0 0 -76 c0 -80 11 -104 48
-104 17 0 20 -10 26 -70 l7 -70 40 0 39 0 0 -80 0 -80 80 0 80 0 0 -140 c0
-87 4 -140 10 -140 6 0 10 -9 10 -20 0 -17 7 -20 50 -20 l50 0 0 -40 c0 -33
-3 -40 -20 -40 -13 0 -20 -7 -20 -20 0 -17 -7 -20 -40 -20 -33 0 -40 -3 -40
-20 0 -18 7 -20 60 -20 l60 0 0 40 c0 33 3 40 20 40 20 0 20 -7 20 -270 l0
-270 35 0 c19 0 35 -4 35 -10 0 -5 20 -10 45 -10 l45 0 0 -110 0 -110 40 0
c22 0 40 -4 40 -10 0 -5 9 -10 20 -10 16 0 20 -7 20 -35 0 -22 -6 -38 -15 -41
-37 -15 -6 -83 38 -84 9 0 17 -4 17 -10 0 -5 9 -10 20 -10 16 0 20 -7 20 -30
l0 -30 60 0 60 0 0 -80 0 -80 80 0 80 0 0 -160 0 -160 30 0 c28 0 30 3 30 36
0 45 19 64 64 64 l36 0 0 -180 c0 -157 -2 -180 -16 -180 -18 0 -44 -23 -44
-39 0 -6 7 -8 15 -5 18 7 20 -7 3 -24 -7 -7 -39 -11 -83 -11 l-70 2 58 10 c66
12 76 27 17 27 -22 0 -40 5 -40 10 0 6 -9 10 -20 10 -11 0 -20 5 -20 10 0 6
-7 10 -15 10 -8 0 -15 -9 -15 -20 0 -12 7 -20 16 -20 12 0 15 -7 12 -25 l-5
-25 99 0 c55 0 109 5 120 11 15 8 19 8 14 0 -4 -6 -2 -11 3 -11 6 0 11 5 11
10 0 14 27 12 33 -2 4 -10 6 -10 6 0 1 7 5 11 10 7 5 -3 90 -1 188 5 98 6 223
13 278 16 55 3 107 8 115 11 8 3 56 7 105 9 50 1 117 5 150 9 80 7 249 24 305
30 1249 126 2404 394 3380 783 703 281 1332 609 1945 1017 1963 1306 3410
3199 4155 5435 371 1111 571 2259 665 3800 14 233 21 396 47 1020 16 384 24
24190 8 24990 -41 2154 -178 3431 -500 4675 -482 1866 -1422 3518 -2760 4855
-1355 1355 -3033 2301 -4917 2774 -1252 315 -2510 444 -4718 486 -596 11
-23375 11 -24091 -1z m-6317 -30286 c-2 -16 -4 -3 -4 27 0 30 2 43 4 28 2 -16
2 -40 0 -55z m-1127 -1073 c0 -11 -4 -20 -10 -20 -5 0 -10 -9 -10 -20 0 -11
-4 -20 -10 -20 -5 0 -10 -9 -10 -20 0 -16 -7 -20 -30 -20 -23 0 -30 5 -30 19
0 10 -9 21 -20 24 -15 4 -20 14 -20 36 0 17 5 31 10 31 6 0 10 -7 10 -15 0 -8
5 -15 10 -15 6 0 10 9 10 20 0 17 7 20 50 20 43 0 50 -3 50 -20z m-160 -19 c0
-17 -4 -33 -10 -36 -6 -4 -10 8 -10 29 0 20 5 36 10 36 6 0 10 -13 10 -29z
m38 -64 c2 -12 -3 -17 -17 -17 -15 0 -21 6 -21 21 0 25 33 22 38 -4z m-598
-187 c0 -23 -4 -30 -20 -30 -16 0 -20 7 -20 30 0 23 4 30 20 30 16 0 20 -7 20
-30z m-200 -110 c0 -73 -2 -80 -20 -80 -17 0 -20 7 -20 40 0 33 -3 40 -20 40
-11 0 -20 5 -20 10 0 6 -18 10 -40 10 -38 0 -40 2 -40 30 l0 30 80 0 80 0 0
-80z m120 60 c0 -11 -4 -20 -10 -20 -5 0 -10 9 -10 20 0 11 5 20 10 20 6 0 10
-9 10 -20z m-200 -110 c0 -28 -2 -30 -40 -30 -38 0 -40 2 -40 30 0 28 2 30 40
30 38 0 40 -2 40 -30z m-4500 -2230 c0 -16 -4 -31 -9 -35 -6 -3 -9 11 -8 34 1
45 17 46 17 1z m0 -141 c0 -6 -4 -7 -10 -4 -5 3 -10 11 -10 16 0 6 5 7 10 4 6
-3 10 -11 10 -16z m34366 -8947 c-10 -2 -22 0 -28 6 -6 6 0 7 19 4 21 -5 23
-7 9 -10z m2924 -4222 c0 -5 -11 -10 -25 -10 -14 0 -25 5 -25 10 0 6 11 10 25
10 14 0 25 -4 25 -10z m730 -1410 c0 -33 -3 -40 -20 -40 -17 0 -20 7 -20 40 0
33 3 40 20 40 17 0 20 -7 20 -40z m0 -230 c0 -23 -4 -30 -20 -30 -16 0 -20 7
-20 30 0 23 4 30 20 30 16 0 20 -7 20 -30z m1063 -907 c-7 -2 -21 -2 -30 0
-10 3 -4 5 12 5 17 0 24 -2 18 -5z m-453 -23 c0 -5 -7 -10 -15 -10 -8 0 -15 5
-15 10 0 6 7 10 15 10 8 0 15 -4 15 -10z"/>
<path d="M21165 40019 c-1192 -9 -2119 -31 -2965 -69 -124 -6 -324 -15 -445
-20 -1528 -68 -2551 -250 -3533 -629 -937 -361 -1600 -809 -2305 -1558 -608
-646 -1022 -1365 -1343 -2328 -277 -835 -433 -1811 -489 -3065 -3 -69 -10
-215 -15 -325 -72 -1504 -83 -2368 -84 -6460 -1 -3182 4 -4441 21 -5220 4
-192 8 -389 8 -437 0 -55 3 -84 10 -77 9 9 11 24 14 97 0 19 5 31 11 27 6 -3
10 -41 10 -84 0 -69 -2 -79 -17 -77 -14 1 -19 -11 -26 -62 -9 -67 -3 -132 13
-132 13 0 13 17 0 25 -5 3 -9 25 -8 48 1 37 2 38 5 10 2 -18 9 -33 15 -33 6 0
20 -10 31 -22 l20 -23 -6 33 c-4 20 -3 32 5 32 7 0 9 17 6 50 l-5 50 153 0
c147 0 154 -1 154 -20 0 -17 -7 -20 -40 -20 -33 0 -40 -3 -40 -20 0 -17 -7
-20 -40 -20 -33 0 -40 3 -40 20 0 17 -7 20 -40 20 -33 0 -40 -3 -40 -20 0 -13
-7 -20 -20 -20 -17 0 -20 -7 -20 -40 l0 -40 60 0 60 0 0 -80 0 -80 360 0 360
0 0 26 c0 14 6 32 14 40 17 16 66 19 66 4 0 -5 9 -10 20 -10 16 0 20 -7 20
-30 l0 -30 60 0 60 0 0 80 0 80 400 0 400 0 0 30 c0 28 2 30 40 30 38 0 40 -2
40 -30 l0 -30 80 0 80 0 0 40 c0 22 -4 40 -10 40 -5 0 -10 9 -10 20 0 11 5 20
10 20 6 0 10 -9 10 -20 0 -11 5 -20 10 -20 6 0 10 5 10 12 0 9 3 9 12 0 7 -7
20 -12 30 -12 14 0 18 -8 18 -40 l0 -40 320 0 320 0 0 160 0 160 320 0 c313 0
320 0 320 -20 0 -19 7 -20 160 -20 l160 0 0 -140 0 -140 1120 0 1120 0 0 -80
0 -80 160 0 160 0 0 -80 0 -80 400 0 400 0 0 -40 0 -40 100 0 c97 0 100 1 101
23 0 12 3 34 5 49 5 32 -18 83 -45 97 -10 6 -20 8 -23 6 -2 -2 -4 5 -5 15 -2
22 -33 71 -33 52 0 -6 -7 -12 -15 -12 -20 0 -19 10 3 27 9 8 11 12 5 8 -8 -4
-13 0 -13 9 0 9 -4 16 -10 16 -5 0 -17 16 -26 35 -9 19 -20 32 -25 29 -17 -10
-38 21 -27 41 7 12 7 16 0 11 -6 -3 -13 -2 -17 4 -9 15 -25 12 -19 -3 3 -9 -6
-12 -36 -9 -39 4 -40 5 -40 41 -1 39 -18 70 -37 64 -19 -7 -27 37 -9 55 14 14
16 13 26 -12 5 -15 10 -32 10 -37 0 -5 5 -9 10 -9 6 0 10 7 10 15 0 8 -5 15
-11 15 -5 0 -7 5 -4 10 4 6 10 8 15 5 5 -3 -6 17 -23 44 -18 27 -36 47 -41 43
-5 -3 -7 2 -3 11 3 10 3 17 -1 17 -4 0 -13 13 -20 29 -7 16 -24 42 -37 57 -14
16 -25 34 -25 40 0 6 -9 21 -20 34 -11 13 -20 27 -20 32 0 5 -4 6 -10 3 -5 -3
-10 2 -10 12 0 25 -35 75 -45 66 -4 -5 -5 -2 -1 5 5 8 0 20 -12 30 -10 9 -17
23 -15 30 3 6 0 12 -6 12 -6 0 -18 18 -27 40 -13 33 -19 38 -30 29 -11 -9 -14
-8 -14 4 0 8 5 17 11 19 6 2 -1 16 -15 31 -14 16 -26 34 -26 41 0 21 -27 68
-36 64 -5 -2 -9 10 -10 26 -1 16 -10 36 -21 45 -11 9 -23 28 -27 43 -3 15 -13
33 -21 42 -9 8 -14 19 -13 23 4 15 -38 93 -47 86 -4 -5 -6 -3 -2 2 8 14 -27
87 -38 78 -4 -5 -6 -3 -2 2 8 14 -27 87 -38 78 -4 -5 -5 -3 -2 3 3 5 -7 35
-22 66 -16 31 -36 77 -46 102 -10 25 -22 43 -28 39 -5 -3 -7 0 -5 8 3 8 -3 30
-14 49 -10 19 -18 40 -18 47 0 7 -4 13 -10 13 -5 0 -10 6 -10 14 0 8 -7 22
-15 30 -9 9 -15 21 -14 28 4 19 -23 98 -33 98 -4 0 -7 3 -6 8 4 10 -83 221
-93 228 -5 3 -9 14 -9 24 0 10 -13 54 -29 97 -50 132 -83 222 -82 227 0 3 -21
65 -45 138 -25 73 -54 167 -65 208 -11 41 -27 94 -35 118 -24 72 -112 428
-149 602 -80 377 -146 836 -182 1260 -22 261 -25 1127 -5 1375 71 871 221
1620 470 2355 529 1558 1435 2929 2657 4019 1431 1278 3201 2084 5095 2320
639 80 1386 93 2020 36 1836 -167 3558 -853 5000 -1994 1745 -1382 2948 -3338
3389 -5516 180 -886 230 -1842 145 -2755 -141 -1524 -660 -3005 -1499 -4280
-240 -365 -440 -632 -725 -964 -52 -61 -97 -113 -100 -116 -3 -3 -34 -39 -70
-80 -78 -91 -566 -579 -670 -670 -122 -107 -304 -263 -346 -296 -85 -68 -160
-128 -171 -138 -6 -6 -25 -21 -41 -34 -17 -13 -48 -36 -69 -52 -21 -16 -76
-57 -123 -91 -47 -34 -87 -65 -90 -68 -3 -3 -13 -10 -22 -16 -45 -27 -255
-171 -272 -187 -11 -10 -24 -18 -28 -18 -8 0 -67 -39 -78 -51 -3 -3 -24 -16
-47 -29 -24 -13 -43 -28 -43 -32 0 -5 -4 -7 -9 -4 -5 3 -19 -3 -32 -13 -13
-10 -28 -20 -34 -22 -32 -13 -125 -72 -125 -80 0 -5 -4 -8 -8 -6 -4 1 -44 -19
-87 -44 -44 -26 -100 -57 -124 -70 -23 -13 -64 -36 -90 -51 -25 -15 -63 -34
-83 -43 -21 -10 -38 -22 -38 -28 0 -6 -3 -8 -6 -4 -4 3 -81 -31 -173 -77 -91
-46 -185 -92 -208 -103 -23 -11 -39 -24 -35 -28 4 -4 0 -6 -8 -4 -24 5 -61
-11 -54 -23 4 -7 2 -8 -5 -4 -16 10 -53 -3 -45 -16 4 -7 2 -8 -4 -4 -6 4 -37
-5 -69 -20 -139 -63 -161 -72 -210 -90 -29 -10 -53 -22 -53 -27 0 -4 -4 -5
-10 -2 -5 3 -22 -1 -37 -9 -29 -16 -102 -44 -140 -53 -13 -3 -23 -12 -23 -19
0 -9 -12 -14 -33 -14 -33 0 -123 -26 -142 -41 -6 -4 -26 -11 -45 -14 -19 -3
-54 -15 -79 -26 -24 -10 -52 -19 -62 -19 -9 0 -24 -6 -31 -13 -7 -8 -21 -13
-30 -11 -9 1 -24 -7 -34 -17 -12 -14 -21 -16 -30 -8 -8 7 -14 7 -19 -1 -3 -5
-1 -10 6 -10 7 0 10 -3 7 -6 -4 -3 -15 -1 -25 4 -12 6 -27 6 -43 -1 -27 -11
-36 -13 -63 -15 -10 -1 -15 -7 -12 -13 4 -6 1 -9 -6 -8 -21 4 -139 -23 -145
-32 -3 -5 0 -9 7 -9 7 0 10 -3 7 -6 -4 -3 -15 -1 -27 5 -13 7 -22 8 -26 1 -3
-5 -15 -10 -26 -10 -10 0 -19 -5 -19 -11 0 -7 -12 -9 -34 -5 -22 4 -37 2 -42
-5 -5 -9 -2 -10 10 -6 10 4 15 3 11 -3 -9 -14 -33 -12 -38 3 -3 9 -7 9 -20 -1
-9 -8 -20 -11 -26 -8 -12 8 -53 -43 -45 -55 9 -16 -12 -9 -32 9 -14 14 -27 17
-51 11 -18 -4 -33 -5 -33 -2 0 2 -7 -3 -16 -11 -17 -17 -39 -22 -29 -7 3 6
-26 1 -64 -9 -38 -11 -83 -21 -101 -22 -17 -1 -36 -8 -41 -15 -7 -7 -22 -10
-40 -6 -22 4 -33 0 -49 -18 -13 -16 -22 -20 -27 -13 -10 15 -52 11 -62 -5 -10
-16 -82 -23 -98 -9 -13 11 -53 2 -53 -12 0 -6 -11 -5 -26 0 -16 7 -23 7 -19 0
3 -6 2 -10 -4 -10 -5 0 -18 -3 -28 -6 -15 -5 -16 -4 -3 6 13 10 12 11 -3 6
-10 -3 -21 -6 -23 -6 -2 0 -4 -7 -4 -15 0 -8 9 -15 20 -15 11 0 20 -3 20 -6 0
-11 -29 -34 -44 -34 -9 0 -16 -4 -16 -10 0 -5 -12 -10 -26 -10 -20 0 -25 4
-20 16 3 8 2 12 -4 9 -6 -3 -10 -3 -10 2 0 18 18 34 46 42 l29 8 -32 5 c-18 2
-30 0 -27 -4 3 -5 -18 -9 -48 -9 -82 1 -119 -5 -173 -25 l-50 -20 -3 -82 -3
-82 161 0 160 0 0 -80 0 -80 240 0 240 0 0 -80 0 -80 80 0 80 0 0 -80 0 -80
80 0 80 0 0 -80 0 -80 160 0 160 0 0 -80 0 -80 80 0 80 0 0 -80 0 -80 80 0 80
0 0 -80 0 -80 80 0 80 0 0 -80 0 -80 60 0 60 0 0 -30 c0 -23 4 -30 20 -30 16
0 20 7 20 30 l0 30 80 0 80 0 0 -80 0 -80 80 0 80 0 0 -80 0 -80 80 0 80 0 0
-80 0 -80 80 0 80 0 0 -80 0 -80 80 0 80 0 0 -80 0 -80 80 0 80 0 0 -80 0 -80
80 0 80 0 0 -40 c0 -33 -3 -40 -20 -40 -13 0 -20 -7 -20 -20 0 -13 -7 -20 -20
-20 -13 0 -20 -7 -20 -20 0 -12 -7 -20 -16 -20 -9 0 -18 -9 -21 -20 -3 -11
-11 -20 -19 -20 -7 0 -16 -4 -19 -10 -4 -6 17 -10 54 -10 l61 0 0 30 0 30 100
0 100 0 0 -80 0 -80 80 0 80 0 0 -80 0 -80 80 0 80 0 0 -80 0 -80 80 0 80 0 0
-80 0 -80 80 0 80 0 0 -80 0 -80 80 0 80 0 0 -40 c0 -33 -3 -40 -20 -40 -13 0
-20 -7 -20 -20 0 -13 7 -20 20 -20 13 0 20 -7 20 -20 0 -18 7 -20 80 -20 l80
0 0 -80 0 -80 80 0 80 0 0 -40 c0 -33 -3 -40 -20 -40 -13 0 -20 -7 -20 -20 0
-13 -7 -20 -20 -20 -13 0 -20 -7 -20 -20 0 -19 7 -20 120 -20 l120 0 0 -160 0
-160 80 0 80 0 0 -80 0 -80 80 0 80 0 0 -80 0 -80 80 0 80 0 0 -40 c0 -33 -3
-40 -20 -40 -13 0 -20 -7 -20 -20 0 -13 -7 -20 -20 -20 -13 0 -20 -7 -20 -20
0 -19 7 -20 120 -20 l120 0 0 -80 0 -80 80 0 80 0 0 -160 0 -160 80 0 80 0 0
-160 0 -160 320 0 c313 0 320 0 320 -20 0 -21 10 -22 193 -24 15 -1 27 -5 27
-10 0 -4 6 -4 13 1 19 16 67 25 67 13 0 -5 -9 -10 -21 -10 -11 0 -18 -4 -15
-8 3 -5 33 -9 68 -9 35 -1 57 1 51 4 -23 9 -13 20 15 17 125 -14 162 -16 162
-8 0 5 33 10 73 11 39 2 126 8 192 14 66 6 141 11 167 12 26 0 45 3 43 6 -2 3
18 6 43 7 75 1 122 7 122 15 0 4 24 7 53 7 28 0 72 3 97 6 71 10 101 14 167
20 34 4 74 11 88 16 13 5 32 7 42 3 10 -4 14 -2 10 4 -4 6 8 10 31 10 44 0
109 9 177 23 73 15 86 17 130 24 22 3 72 13 110 21 39 9 86 18 105 21 19 2 58
11 85 18 28 8 88 22 135 31 47 10 90 20 95 23 6 4 19 8 30 9 11 2 43 10 70 19
28 9 59 17 70 19 23 2 114 27 200 55 33 11 125 40 205 66 80 25 159 52 175 59
17 6 55 21 85 32 30 11 87 33 125 48 39 15 97 38 130 50 145 54 546 243 685
322 109 62 263 155 314 189 32 21 69 46 82 54 132 85 372 265 479 361 11 10
54 46 95 80 136 114 593 580 729 744 418 502 691 966 944 1600 294 736 468
1455 576 2380 51 431 75 793 111 1650 5 132 12 287 15 345 12 252 30 850 47
1570 18 740 18 8960 0 9810 -16 764 -31 1268 -52 1780 -36 834 -46 1020 -71
1335 -98 1247 -314 2195 -707 3105 -237 548 -537 1030 -911 1460 -184 211
-518 546 -717 717 -532 460 -1111 792 -1874 1076 -804 299 -1737 481 -2860
556 -556 38 -1987 93 -2755 106 -1384 24 -6588 33 -8900 14z m13940 -3048
c1212 -179 2047 -1296 1869 -2501 -131 -883 -776 -1597 -1641 -1816 -313 -79
-665 -87 -983 -23 -651 132 -1215 561 -1517 1154 -110 215 -179 426 -220 670
-27 167 -25 524 6 697 125 711 563 1300 1199 1613 147 72 226 103 372 144 220
62 340 78 595 80 141 1 224 -4 320 -18z m-18172 -16860 c3 -14 1 -18 -9 -14
-15 6 -18 16 -7 26 9 10 10 9 16 -12z m-6880 -115 c4 -10 1 -13 -9 -9 -15 6
-19 23 -5 23 5 0 11 -7 14 -14z m6957 -27 c0 -6 -4 -7 -10 -4 -5 3 -10 11 -10
16 0 6 5 7 10 4 6 -3 10 -11 10 -16z m-5530 -59 c0 -11 -4 -20 -10 -20 -5 0
-10 9 -10 20 0 11 5 20 10 20 6 0 10 -9 10 -20z m5600 -31 c0 -5 -4 -9 -10 -9
-5 0 -10 7 -10 16 0 8 5 12 10 9 6 -3 10 -10 10 -16z m-5080 -39 c0 -5 9 -10
20 -10 16 0 20 -7 20 -30 0 -28 -2 -30 -40 -30 -33 0 -40 -3 -40 -20 0 -11 -4
-20 -10 -20 -5 0 -10 9 -10 20 0 11 -4 20 -10 20 -14 0 -12 48 3 65 14 16 67
20 67 5z m280 0 c0 -5 9 -10 21 -10 16 0 20 -5 17 -27 -3 -24 -8 -28 -40 -31
-35 -3 -38 -1 -38 23 0 25 17 54 33 55 4 0 7 -4 7 -10z m-160 -20 c0 -5 -4
-10 -10 -10 -5 0 -10 5 -10 10 0 6 5 10 10 10 6 0 10 -4 10 -10z m2880 0 c0
-5 -4 -10 -10 -10 -5 0 -10 5 -10 10 0 6 5 10 10 10 6 0 10 -4 10 -10z m960 0
c0 -5 -5 -10 -11 -10 -5 0 -7 5 -4 10 3 6 8 10 11 10 2 0 4 -4 4 -10z m-5284
-87 c-11 -11 -19 6 -11 24 8 17 8 17 12 0 3 -10 2 -21 -1 -24z m1524 17 c0
-13 -7 -20 -20 -20 -13 0 -20 7 -20 20 0 13 7 20 20 20 13 0 20 -7 20 -20z
m-1840 -250 c0 -5 -4 -10 -10 -10 -5 0 -10 5 -10 10 0 6 5 10 10 10 6 0 10 -4
10 -10z m7036 -107 c-11 -11 -17 4 -9 23 7 18 8 18 11 1 2 -10 1 -21 -2 -24z
m58 -48 c-7 -16 -24 -21 -24 -6 0 8 7 13 27 20 1 1 0 -6 -3 -14z m9563 -3571
c-3 -3 -12 -4 -19 -1 -8 3 -5 6 6 6 11 1 17 -2 13 -5z m3 -44 c0 -5 -19 -10
-42 -9 -33 0 -38 2 -23 9 28 12 65 12 65 0z m6577 -5526 c-3 -3 -12 -4 -19 -1
-8 3 -5 6 6 6 11 1 17 -2 13 -5z m-937 -84 c0 -5 -2 -10 -4 -10 -3 0 -8 5 -11
10 -3 6 -1 10 4 10 6 0 11 -4 11 -10z"/>
<path d="M24625 31099 c-2062 -132 -3905 -1284 -4932 -3084 -100 -175 -173
-322 -298 -600 -178 -397 -334 -935 -414 -1425 -165 -1013 -77 -2024 261
-3000 52 -149 91 -252 108 -282 5 -9 18 -41 28 -70 37 -106 235 -507 313 -636
22 -35 39 -68 39 -73 0 -5 5 -9 10 -9 6 0 9 -3 8 -7 -1 -5 5 -19 13 -33 9 -14
40 -63 68 -110 47 -77 128 -200 148 -225 5 -5 24 -32 43 -60 19 -27 43 -58 53
-69 9 -11 17 -23 17 -27 0 -4 6 -14 13 -21 7 -7 24 -29 37 -48 23 -33 167
-211 207 -255 10 -12 19 -24 21 -28 1 -4 17 -22 35 -41 17 -18 59 -64 92 -102
87 -99 286 -297 390 -389 50 -43 100 -90 113 -103 12 -12 22 -21 22 -18 0 2
13 -8 28 -22 75 -70 135 -117 148 -114 8 2 13 -1 12 -6 -2 -5 13 -22 32 -38
19 -16 31 -23 26 -16 -4 6 -2 12 3 12 6 0 11 -7 11 -15 0 -8 26 -34 58 -57 31
-24 61 -49 65 -55 4 -7 15 -13 22 -13 8 0 15 -4 15 -9 0 -5 14 -14 30 -21 17
-7 30 -15 30 -19 0 -10 64 -46 75 -42 6 1 7 -1 2 -5 -10 -11 81 -66 95 -58 7
4 8 3 4 -4 -4 -7 -1 -12 8 -12 9 0 16 -3 16 -7 0 -9 71 -59 80 -56 4 1 20 -10
36 -23 16 -14 43 -32 59 -40 17 -8 44 -23 60 -33 17 -11 38 -20 48 -20 9 -1
17 -5 17 -10 0 -10 39 -27 53 -23 4 1 6 -2 5 -7 -3 -11 46 -39 232 -131 202
-101 249 -122 259 -116 5 3 11 0 14 -7 2 -7 42 -27 88 -46 46 -18 102 -41 125
-52 23 -10 46 -19 51 -19 5 0 23 -7 40 -15 16 -8 38 -16 49 -18 10 -2 33 -10
49 -16 17 -7 40 -14 52 -14 11 -1 19 -5 16 -9 -2 -5 3 -9 11 -9 16 -1 28 -4
44 -9 4 -1 15 -1 26 0 12 1 16 -3 11 -10 -5 -9 -1 -10 14 -5 13 4 21 2 21 -5
0 -7 7 -9 16 -6 9 4 23 1 31 -6 19 -15 39 -21 81 -21 20 0 28 -3 20 -9 -9 -5
-6 -8 9 -8 12 0 25 -5 28 -10 3 -6 18 -7 32 -4 17 5 24 3 20 -3 -6 -9 42 -26
80 -28 6 0 15 -4 19 -8 4 -4 18 -7 31 -7 14 0 33 -4 43 -10 10 -5 35 -12 56
-15 22 -2 50 -7 64 -11 40 -9 112 -24 145 -30 17 -2 39 -7 50 -9 65 -15 125
-26 164 -31 26 -3 57 -7 71 -9 75 -11 191 -27 235 -31 28 -2 73 -6 100 -9 220
-20 366 -24 667 -21 191 3 351 7 356 10 5 3 38 8 73 10 127 9 196 17 289 31
52 8 115 17 140 21 25 3 77 12 115 20 39 8 85 16 104 19 65 10 266 56 286 65
11 5 36 12 55 15 112 18 612 182 775 256 28 12 55 23 60 25 41 10 451 207 566
272 119 67 255 146 259 151 3 3 17 12 32 20 15 8 37 23 48 33 11 10 20 16 20
13 0 -5 49 23 60 35 3 3 39 27 80 55 513 339 1051 852 1447 1380 716 953 1128
2057 1213 3247 13 185 13 638 0 828 -36 522 -141 1055 -302 1535 -89 265 -207
550 -324 780 -216 426 -446 783 -733 1135 -87 108 -103 126 -206 239 -69 77
-368 376 -440 442 -471 426 -1056 804 -1630 1053 -60 26 -119 52 -130 57 -50
22 -192 76 -320 121 -439 155 -935 263 -1445 314 -186 18 -745 26 -945 13z
m-3180 -11027 c-3 -3 -11 0 -18 7 -9 10 -8 11 6 5 10 -3 15 -9 12 -12z m2602
-1078 c-3 -3 -12 -4 -19 -1 -8 3 -5 6 6 6 11 1 17 -2 13 -5z m846 -81 c-7 -2
-19 -2 -25 0 -7 3 -2 5 12 5 14 0 19 -2 13 -5z"/>
<path d="M17190 19721 c0 -6 4 -13 10 -16 6 -3 7 1 4 9 -7 18 -14 21 -14 7z"/>
<path d="M12260 19660 c0 -5 5 -10 10 -10 6 0 10 5 10 10 0 6 -4 10 -10 10 -5
0 -10 -4 -10 -10z"/>
<path d="M10985 19500 c-3 -5 -1 -10 4 -10 6 0 11 5 11 10 0 6 -2 10 -4 10 -3
0 -8 -4 -11 -10z"/>
<path d="M10026 19429 c-3 -17 -5 -43 -5 -58 1 -14 5 -2 10 28 10 58 6 83 -5
30z"/>
<path d="M17523 19243 c-7 -2 -13 -20 -13 -39 0 -27 4 -34 20 -34 11 0 20 6
20 14 0 8 3 22 6 31 4 10 2 15 -7 13 -8 -2 -13 3 -11 10 1 6 1 12 0 11 -2 0
-9 -3 -15 -6z"/>
<path d="M17560 19201 c0 -6 4 -12 9 -16 13 -7 10 -45 -4 -46 -5 0 0 -4 13 -9
12 -5 22 -16 22 -25 0 -13 12 -19 33 -16 4 0 7 -4 7 -10 0 -5 5 -7 10 -4 16
10 12 25 -6 25 -11 0 -15 6 -11 20 3 11 1 20 -3 20 -5 0 -11 -10 -13 -22 -4
-19 -5 -18 -6 5 -2 43 -51 117 -51 78z"/>
<path d="M10032 19130 c0 -14 2 -19 5 -12 2 6 2 18 0 25 -3 6 -5 1 -5 -13z"/>
<path d="M10043 19055 c0 -27 2 -38 4 -22 2 15 2 37 0 50 -2 12 -4 0 -4 -28z"/>
<path d="M17708 18999 c-30 -17 -22 -36 13 -31 17 3 27 7 22 11 -6 3 -12 11
-14 18 -3 8 -9 9 -21 2z"/>
<path d="M17756 18961 c-5 -8 -3 -17 5 -22 12 -8 12 -10 0 -18 -7 -5 -10 -14
-7 -20 11 -18 33 -13 39 9 3 13 1 18 -6 13 -7 -4 -8 0 -4 11 4 9 3 14 -2 11
-5 -3 -11 3 -13 12 -3 14 -5 15 -12 4z"/>
<path d="M6640 18912 c0 -15 -6 -22 -20 -22 -17 0 -20 -7 -20 -40 l0 -40 -60
0 c-53 0 -60 -2 -60 -20 0 -18 -7 -20 -80 -20 -73 0 -80 -2 -80 -20 0 -13 -7
-20 -20 -20 -17 0 -20 -7 -20 -40 0 -33 -3 -40 -20 -40 -13 0 -20 7 -20 20 0
17 -7 20 -40 20 -33 0 -40 -3 -40 -20 0 -13 -7 -20 -19 -20 -10 0 -21 -9 -24
-20 -3 -11 -12 -20 -21 -20 -9 0 -16 -8 -16 -20 0 -13 -7 -20 -20 -20 -18 0
-20 -7 -20 -60 0 -53 -2 -60 -20 -60 -13 0 -20 -7 -20 -20 0 -13 -7 -20 -20
-20 -13 0 -20 -7 -20 -20 0 -16 7 -20 30 -20 23 0 30 -4 30 -20 0 -11 5 -20
10 -20 6 0 10 9 10 20 0 11 5 20 10 20 6 0 10 -9 10 -20 0 -11 5 -20 10 -20 6
0 10 40 10 99 0 90 2 99 20 104 15 4 20 14 20 41 0 20 5 36 10 36 6 0 10 -9
10 -20 0 -11 5 -20 10 -20 6 0 10 -18 10 -40 l0 -40 80 0 c79 0 80 0 80 26 0
14 6 32 14 40 17 16 66 19 66 4 0 -5 9 -10 20 -10 16 0 20 -7 20 -30 0 -23 4
-30 20 -30 13 0 20 7 20 20 0 17 7 20 40 20 l40 0 0 90 0 90 40 0 c38 0 40 -2
40 -30 0 -25 4 -30 24 -30 29 0 36 23 29 94 -4 34 -1 56 6 60 17 11 14 73 -5
80 -26 10 -32 7 -37 -16 -2 -13 -4 -6 -4 15 0 20 -3 40 -6 44 -4 3 -7 -3 -7
-15z m40 -138 c0 -34 -17 -30 -22 5 -3 21 -1 28 9 24 7 -3 13 -16 13 -29z
m-360 -164 c0 -33 -3 -40 -20 -40 -13 0 -20 -7 -20 -20 0 -17 -7 -20 -50 -20
-27 0 -50 5 -50 10 0 6 14 10 30 10 17 0 30 5 30 10 0 6 9 10 20 10 17 0 20 7
20 40 0 33 3 40 20 40 17 0 20 -7 20 -40z m-80 -10 c0 -5 -13 -10 -30 -10 -16
0 -30 -4 -30 -10 0 -5 -4 -10 -10 -10 -5 0 -10 9 -10 20 0 17 7 20 40 20 22 0
40 -4 40 -10z"/>
<path d="M17840 18860 c-12 -8 -12 -10 3 -16 10 -3 21 -4 24 0 4 3 1 6 -6 6
-7 0 -9 5 -6 10 8 12 4 12 -15 0z"/>
<path d="M17990 18684 c0 -3 5 -14 10 -25 11 -20 40 -27 40 -9 0 6 -7 10 -15
10 -8 0 -15 7 -15 15 0 8 -4 15 -10 15 -5 0 -10 -3 -10 -6z"/>
<path d="M18039 18611 c6 -10 7 -21 3 -25 -3 -4 1 -4 11 0 11 4 17 1 17 -7 0
-11 3 -11 10 1 12 19 13 33 1 25 -5 -3 -16 2 -24 10 -21 21 -30 19 -18 -4z"/>
<path d="M10060 18574 c0 -8 5 -12 10 -9 6 4 8 11 5 16 -9 14 -15 11 -15 -7z"/>
<path d="M6713 18535 c0 -22 2 -30 4 -17 2 12 2 30 0 40 -3 9 -5 -1 -4 -23z"/>
<path d="M18119 18543 c-12 -16 -12 -17 2 -6 9 7 20 9 24 5 5 -4 5 -1 1 6 -9
16 -11 15 -27 -5z"/>
<path d="M6120 18510 c0 -11 5 -20 10 -20 6 0 10 9 10 20 0 11 -4 20 -10 20
-5 0 -10 -9 -10 -20z"/>
<path d="M18197 18470 c7 -25 23 -37 23 -17 0 8 -6 20 -14 26 -12 10 -13 8 -9
-9z"/>
<path d="M10067 18464 c-4 -4 -7 -14 -7 -23 0 -11 3 -12 11 -4 6 6 10 16 7 23
-2 6 -7 8 -11 4z"/>
<path d="M10061 18334 c0 -11 3 -14 6 -6 3 7 2 16 -1 19 -3 4 -6 -2 -5 -13z"/>
<path d="M6716 18314 c-10 -25 1 -29 14 -5 6 12 7 21 1 21 -5 0 -12 -7 -15
-16z"/>
<path d="M18436 18221 c-3 -5 1 -14 9 -21 12 -10 15 -10 15 3 0 19 -16 31 -24
18z"/>
<path d="M18595 18080 c3 -5 8 -10 11 -10 2 0 4 5 4 10 0 6 -5 10 -11 10 -5 0
-7 -4 -4 -10z"/>
<path d="M18610 18050 c0 -5 7 -7 15 -4 8 4 15 8 15 10 0 2 -7 4 -15 4 -8 0
-15 -4 -15 -10z"/>
<path d="M18635 18030 c-3 -5 -1 -10 4 -10 6 0 11 5 11 10 0 6 -2 10 -4 10 -3
0 -8 -4 -11 -10z"/>
<path d="M3880 17960 c0 -5 5 -10 10 -10 6 0 10 5 10 10 0 6 -4 10 -10 10 -5
0 -10 -4 -10 -10z"/>
<path d="M18715 17930 c3 -5 8 -10 11 -10 2 0 4 5 4 10 0 6 -5 10 -11 10 -5 0
-7 -4 -4 -10z"/>
<path d="M6752 17600 c0 -19 2 -27 5 -17 2 9 2 25 0 35 -3 9 -5 1 -5 -18z"/>
<path d="M19230 17530 c0 -5 5 -10 11 -10 5 0 7 5 4 10 -3 6 -8 10 -11 10 -2
0 -4 -4 -4 -10z"/>
<path d="M19517 17329 c7 -7 15 -10 18 -7 3 3 -2 9 -12 12 -14 6 -15 5 -6 -5z"/>
<path d="M6762 17290 c0 -14 2 -19 5 -12 2 6 2 18 0 25 -3 6 -5 1 -5 -13z"/>
<path d="M19610 17266 c0 -3 9 -10 20 -16 11 -6 20 -8 20 -6 0 3 -9 10 -20 16
-11 6 -20 8 -20 6z"/>
<path d="M19655 17220 c-19 -8 -19 -9 3 -9 12 -1 22 4 22 9 0 6 -1 10 -2 9 -2
0 -12 -4 -23 -9z"/>
<path d="M1080 16270 c0 -13 7 -20 20 -20 13 0 20 7 20 20 0 13 -7 20 -20 20
-13 0 -20 -7 -20 -20z"/>
<path d="M22147 16009 c7 -7 15 -10 18 -7 3 3 -2 9 -12 12 -14 6 -15 5 -6 -5z"/>
<path d="M23175 15750 c-3 -6 1 -7 9 -4 18 7 21 14 7 14 -6 0 -13 -4 -16 -10z"/>
<path d="M26618 15713 c6 -2 18 -2 25 0 6 3 1 5 -13 5 -14 0 -19 -2 -12 -5z"/>
<path d="M26014 15629 c-3 -5 -25 -7 -50 -4 -26 2 -42 0 -39 -6 9 -14 127 -9
156 7 23 12 22 13 -19 12 -23 0 -45 -4 -48 -9z"/>
<path d="M24418 15583 c6 -2 18 -2 25 0 6 3 1 5 -13 5 -14 0 -19 -2 -12 -5z"/>
<path d="M24748 15583 c7 -3 16 -2 19 1 4 3 -2 6 -13 5 -11 0 -14 -3 -6 -6z"/>
<path d="M25314 15571 c21 -11 43 -18 48 -15 16 10 -4 22 -47 29 l-40 7 39
-21z"/>
<path d="M25410 15580 c8 -5 22 -9 30 -9 10 0 8 3 -5 9 -27 12 -43 12 -25 0z"/>
<path d="M25600 15580 c-38 -6 -41 -8 -22 -15 26 -9 29 -22 5 -28 -17 -4 -17
-5 0 -6 10 -1 17 -9 17 -21 0 -17 7 -20 40 -20 33 0 40 3 40 20 0 11 5 20 10
20 6 0 10 14 10 30 0 33 -7 35 -100 20z"/>
<path d="M25960 15570 c0 -11 5 -20 10 -20 6 0 10 9 10 20 0 11 -4 20 -10 20
-5 0 -10 -9 -10 -20z"/>
<path d="M25482 15566 c7 -8 15 -11 18 -7 3 3 9 9 14 14 5 4 -3 7 -18 7 -22 0
-25 -2 -14 -14z"/>
<path d="M28640 13390 c0 -13 7 -20 20 -20 13 0 20 7 20 20 0 13 -7 20 -20 20
-13 0 -20 -7 -20 -20z"/>
<path d="M31740 10084 c0 -17 22 -14 28 4 2 7 -3 12 -12 12 -9 0 -16 -7 -16
-16z"/>
<path d="M32025 10090 c-3 -5 8 -9 27 -9 18 1 38 0 43 -1 6 -1 17 -1 25 0 17
3 -34 17 -67 19 -12 0 -25 -3 -28 -9z"/>
<path d="M32268 10093 c6 -2 18 -2 25 0 6 3 1 5 -13 5 -14 0 -19 -2 -12 -5z"/>
<path d="M31866 10079 c6 -11 84 -12 100 -1 7 4 -14 7 -47 8 -32 1 -56 -3 -53
-7z"/>
<path d="M32328 10083 c12 -2 30 -2 40 0 9 3 -1 5 -23 4 -22 0 -30 -2 -17 -4z"/>
<path d="M31313 10053 c9 -2 23 -2 30 0 6 3 -1 5 -18 5 -16 0 -22 -2 -12 -5z"/>
<path d="M30850 10040 c-9 -6 -10 -10 -3 -10 6 0 15 5 18 10 8 12 4 12 -15 0z"/>
<path d="M31013 10043 c9 -2 23 -2 30 0 6 3 -1 5 -18 5 -16 0 -22 -2 -12 -5z"/>
<path d="M31248 10043 c7 -3 16 -2 19 1 4 3 -2 6 -13 5 -11 0 -14 -3 -6 -6z"/>
<path d="M30718 10033 c6 -2 18 -2 25 0 6 3 1 5 -13 5 -14 0 -19 -2 -12 -5z"/>
<path d="M29808 10013 c12 -2 32 -2 45 0 12 2 2 4 -23 4 -25 0 -35 -2 -22 -4z"/>
<path d="M34468 6943 c7 -3 16 -2 19 1 4 3 -2 6 -13 5 -11 0 -14 -3 -6 -6z"/>
<path d="M33863 6853 c9 -2 23 -2 30 0 6 3 -1 5 -18 5 -16 0 -22 -2 -12 -5z"/>
<path d="M38493 475 c-15 -17 -17 -65 -3 -65 6 0 10 -9 10 -20 0 -11 5 -20 10
-20 15 0 12 77 -2 83 -10 4 -10 6 0 6 6 1 12 8 12 16 0 19 -11 19 -27 0z"/>
<path d="M38331 74 c0 -11 3 -14 6 -6 3 7 2 16 -1 19 -3 4 -6 -2 -5 -13z"/>
<path d="M38193 53 c9 -2 23 -2 30 0 6 3 -1 5 -18 5 -16 0 -22 -2 -12 -5z"/>
<path d="M38248 53 c6 -2 18 -2 25 0 6 3 1 5 -13 5 -14 0 -19 -2 -12 -5z"/>
</g>
</svg>
