<?xml version="1.0" standalone="no"?>
<!DOCTYPE svg PUBLIC "-//W3C//DTD SVG 20010904//EN"
 "http://www.w3.org/TR/2001/REC-SVG-20010904/DTD/svg10.dtd">
<svg version="1.0" xmlns="http://www.w3.org/2000/svg"
 width="512.000000pt" height="512.000000pt" viewBox="0 0 512.000000 512.000000"
 preserveAspectRatio="xMidYMid meet">

<g transform="translate(0.000000,512.000000) scale(0.100000,-0.100000)"
fill="#000000" stroke="none">
<path d="M1425 4610 c-206 -13 -322 -42 -455 -111 -214 -111 -378 -326 -430
-567 -34 -157 -40 -343 -40 -1387 0 -1003 5 -1203 35 -1345 63 -302 283 -548
570 -639 177 -56 168 -56 1455 -56 1287 0 1278 0 1455 56 287 91 507 337 570
639 30 142 35 342 35 1345 0 1044 -6 1230 -40 1387 -64 293 -284 535 -570 627
-165 53 -170 53 -1360 56 -608 2 -1159 -1 -1225 -5z m2203 -1649 l2 -633 -207
-204 -208 -203 -315 -1 -315 0 -155 -155 c-85 -85 -163 -155 -172 -155 -16 0
-18 15 -20 153 l-3 152 -255 5 -255 5 -5 825 c-3 454 -3 831 -1 838 2 10 198
12 955 10 l951 -3 3 -634z"/>
<path d="M2355 3128 c-3 -7 -4 -164 -3 -348 l3 -335 110 0 110 0 0 345 0 345
-108 3 c-81 2 -109 -1 -112 -10z"/>
<path d="M2995 3128 c-3 -7 -4 -164 -3 -348 l3 -335 110 0 110 0 0 345 0 345
-108 3 c-81 2 -109 -1 -112 -10z"/>
</g>
</svg>
