<?xml version="1.0" standalone="no"?>
<!DOCTYPE svg PUBLIC "-//W3C//DTD SVG 20010904//EN"
 "http://www.w3.org/TR/2001/REC-SVG-20010904/DTD/svg10.dtd">
<svg version="1.0" xmlns="http://www.w3.org/2000/svg"
 width="432.000000pt" height="432.000000pt" viewBox="0 0 432.000000 432.000000"
 preserveAspectRatio="xMidYMid meet">

<g transform="translate(0.000000,432.000000) scale(0.100000,-0.100000)"
fill="#000000" stroke="none">
<path d="M965 4289 c-138 -20 -330 -95 -447 -173 -208 -138 -366 -346 -443
-582 -56 -172 -56 -166 -53 -1429 l3 -1160 27 -97 c58 -212 154 -378 303 -523
145 -141 308 -232 517 -288 l83 -22 1210 0 1210 0 90 24 c207 54 385 157 530
305 139 143 228 301 288 513 l22 78 3 1165 c2 830 0 1188 -8 1244 -35 240
-146 463 -317 633 -146 145 -312 238 -527 296 -81 21 -85 21 -1256 23 -646 1
-1202 -2 -1235 -7z m1016 -1389 c172 -231 316 -420 319 -419 4 0 548 588 731
789 l46 51 108 -3 108 -3 -214 -230 c-513 -553 -674 -728 -677 -735 -3 -7 365
-505 860 -1162 l148 -198 -372 1 -373 0 -320 430 c-176 236 -329 442 -341 456
l-20 26 -230 -249 c-127 -137 -317 -342 -423 -456 l-192 -208 -105 0 c-57 0
-104 2 -104 5 0 3 118 132 262 288 278 300 575 621 647 699 24 26 41 54 38 61
-3 7 -214 292 -469 633 -255 340 -467 625 -472 632 -6 9 69 12 362 12 l369 0
314 -420z"/>
<path d="M1287 3108 c21 -29 206 -278 412 -553 206 -275 527 -704 713 -952
l338 -453 166 0 c101 0 164 4 162 10 -1 5 -338 457 -748 1005 l-744 995 -169
0 -169 0 39 -52z"/>
</g>
</svg>
