<?xml version="1.0" standalone="no"?>
<!DOCTYPE svg PUBLIC "-//W3C//DTD SVG 20010904//EN"
 "http://www.w3.org/TR/2001/REC-SVG-20010904/DTD/svg10.dtd">
<svg version="1.0" xmlns="http://www.w3.org/2000/svg"
 width="512.000000pt" height="512.000000pt" viewBox="0 0 512.000000 512.000000"
 preserveAspectRatio="xMidYMid meet">

<g transform="translate(0.000000,512.000000) scale(0.100000,-0.100000)"
fill="#000000" stroke="none">
<path d="M3040 3590 c-19 -5 -91 -14 -160 -20 -69 -6 -206 -25 -305 -41 -271
-44 -285 -44 -501 -15 -433 60 -623 56 -754 -14 -71 -38 -169 -161 -189 -236
-39 -148 -66 -541 -57 -835 15 -491 51 -655 166 -763 95 -88 188 -113 510
-136 245 -17 1088 -24 1405 -11 564 23 662 44 775 168 57 63 82 123 104 253
30 181 39 364 33 705 -6 327 -13 430 -42 575 -39 196 -145 302 -333 335 -143
25 -588 49 -652 35z m-720 -600 c34 -17 40 -18 40 -5 0 20 42 20 83 -1 51 -26
257 -176 258 -188 1 -6 1 -13 1 -16 0 -3 78 -52 174 -109 96 -58 174 -108 174
-112 0 -4 -27 -24 -60 -44 -33 -20 -65 -45 -70 -55 -9 -17 -72 -64 -110 -83
-8 -5 -33 -19 -55 -32 -22 -13 -56 -33 -75 -43 -195 -105 -249 -132 -264 -132
-9 0 -44 -14 -77 -31 -34 -17 -63 -29 -64 -27 -3 3 -25 592 -26 693 0 27 24
205 28 205 2 0 22 -9 43 -20z"/>
</g>
</svg>
